<svg width="934" height="139" viewBox="0 0 934 139" fill="none" xmlns="http://www.w3.org/2000/svg">
<path d="M0 136V34H29.4V58H30V136H0ZM68.6 136V71.2C68.6 66 67.2 62.2 64.4 59.8C61.7333 57.2667 57.9333 56 53 56C48.7333 56 44.8 57 41.2 59C37.7333 60.8667 35 63.6 33 67.2C31 70.6667 30 74.8 30 79.6L27.4 56.6C30.7333 49.1333 35.5333 43.2 41.8 38.8C48.2 34.2667 55.8667 32 64.8 32C75.4667 32 83.7333 35 89.6 41C95.6 47 98.6 54.5333 98.6 63.6V136H68.6ZM137.2 136V71.2C137.2 66 135.8 62.2 133 59.8C130.333 57.2667 126.533 56 121.6 56C117.333 56 113.4 57 109.8 59C106.333 60.8667 103.6 63.6 101.6 67.2C99.6 70.6667 98.6 74.8 98.6 79.6L94 56.6C97.3333 49.1333 102.267 43.2 108.8 38.8C115.467 34.2667 123.467 32 132.8 32C143.867 32 152.333 35.1333 158.2 41.4C164.2 47.5333 167.2 55.6 167.2 65.6V136H137.2Z" fill="black"/>
<path d="M245.7 136C244.9 133.067 244.3 129.933 243.9 126.6C243.633 123.267 243.5 119.4 243.5 115H242.7V66.8C242.7 62.6667 241.3 59.4667 238.5 57.2C235.833 54.8 231.833 53.6 226.5 53.6C221.433 53.6 217.367 54.4667 214.3 56.2C211.367 57.9333 209.433 60.4667 208.5 63.8H179.9C181.233 54.6 185.967 47 194.1 41C202.233 35 213.367 32 227.5 32C242.167 32 253.367 35.2667 261.1 41.8C268.833 48.3333 272.7 57.7333 272.7 70V115C272.7 118.333 272.9 121.733 273.3 125.2C273.833 128.533 274.633 132.133 275.7 136H245.7ZM210.1 138C199.967 138 191.9 135.467 185.9 130.4C179.9 125.2 176.9 118.333 176.9 109.8C176.9 100.333 180.433 92.7333 187.5 87C194.7 81.1333 204.7 77.3333 217.5 75.6L247.3 71.4V88.8L222.5 92.6C217.167 93.4 213.233 94.8667 210.7 97C208.167 99.1333 206.9 102.067 206.9 105.8C206.9 109.133 208.1 111.667 210.5 113.4C212.9 115.133 216.1 116 220.1 116C226.367 116 231.7 114.333 236.1 111C240.5 107.533 242.7 103.533 242.7 99L245.5 115C242.567 122.6 238.1 128.333 232.1 132.2C226.1 136.067 218.767 138 210.1 138Z" fill="black"/>
<path d="M331.127 138.2C318.06 138.2 308.327 135.067 301.927 128.8C295.66 122.4 292.527 112.733 292.527 99.8V11.2L322.527 0V100.8C322.527 105.333 323.793 108.733 326.327 111C328.86 113.267 332.793 114.4 338.127 114.4C340.127 114.4 341.993 114.2 343.727 113.8C345.46 113.4 347.193 112.933 348.927 112.4V135.2C347.193 136.133 344.727 136.867 341.527 137.4C338.46 137.933 334.993 138.2 331.127 138.2ZM273.527 56.8V34H348.927V56.8H273.527Z" fill="black"/>
<path d="M405.391 138C394.057 138 384.191 135.8 375.791 131.4C367.391 126.867 360.857 120.6 356.191 112.6C351.657 104.6 349.391 95.4 349.391 85C349.391 74.4667 351.657 65.2667 356.191 57.4C360.857 49.4 367.324 43.2 375.591 38.8C383.857 34.2667 393.457 32 404.391 32C414.924 32 424.057 34.1333 431.791 38.4C439.524 42.6667 445.524 48.6 449.791 56.2C454.057 63.8 456.191 72.7333 456.191 83C456.191 85.1333 456.124 87.1333 455.991 89C455.857 90.7333 455.657 92.4 455.391 94H366.991V74.2H431.191L425.991 77.8C425.991 69.5333 423.991 63.4667 419.991 59.6C416.124 55.6 410.791 53.6 403.991 53.6C396.124 53.6 389.991 56.2667 385.591 61.6C381.324 66.9333 379.191 74.9333 379.191 85.6C379.191 96 381.324 103.733 385.591 108.8C389.991 113.867 396.524 116.4 405.191 116.4C409.991 116.4 414.124 115.6 417.591 114C421.057 112.4 423.657 109.8 425.391 106.2H453.591C450.257 116.067 444.524 123.867 436.391 129.6C428.391 135.2 418.057 138 405.391 138Z" fill="black"/>
<g opacity="0.5">
<path d="M471.617 136.16V0H486.289V136.16H471.617ZM532.687 136.16L482.987 87.4L530.853 42.32H551.026L497.292 91.632L498.209 82.984L552.86 136.16H532.687Z" fill="black"/>
<path d="M602.538 138C593.612 138 585.727 135.915 578.88 131.744C572.033 127.451 566.654 121.624 562.741 114.264C558.829 106.904 556.873 98.44 556.873 88.872C556.873 79.304 558.768 70.9013 562.558 63.664C566.47 56.304 571.911 50.6 578.88 46.552C585.849 42.504 593.857 40.48 602.904 40.48C611.585 40.48 619.104 42.3813 625.462 46.184C631.941 49.9867 636.893 55.3227 640.316 62.192C643.862 69.0613 645.635 77.1573 645.635 86.48C645.635 87.7067 645.573 88.872 645.451 89.976C645.451 91.08 645.329 92.3067 645.084 93.656H567.876V81.328H636.098L631.33 88.136C631.33 76.8507 628.824 68.2027 623.811 62.192C618.921 56.0587 611.952 52.992 602.904 52.992C593.612 52.992 586.093 56.2427 580.347 62.744C574.723 69.1227 571.911 77.7707 571.911 88.688C571.911 99.8507 574.723 108.805 580.347 115.552C586.093 122.176 593.735 125.488 603.271 125.488C609.262 125.488 614.519 124.2 619.043 121.624C623.566 118.925 626.868 115.123 628.946 110.216H642.884C639.827 118.803 634.692 125.611 627.479 130.64C620.388 135.547 612.074 138 602.538 138Z" fill="black"/>
<path d="M704.062 137.816C693.67 137.816 686.09 135.485 681.322 130.824C676.676 126.04 674.353 119.171 674.353 110.216V20.424L689.024 14.904V110.032C689.024 115.307 690.369 119.171 693.059 121.624C695.748 124.077 700.15 125.304 706.263 125.304C708.708 125.304 710.786 125.181 712.498 124.936C714.332 124.568 715.799 124.139 716.9 123.648V136.16C715.677 136.651 713.904 137.019 711.581 137.264C709.38 137.632 706.874 137.816 704.062 137.816ZM655.096 54.832V42.32H716.9V54.832H655.096Z" fill="black"/>
<path d="M776.416 137.816C766.024 137.816 758.444 135.485 753.675 130.824C749.029 126.04 746.706 119.171 746.706 110.216V20.424L761.378 14.904V110.032C761.378 115.307 762.723 119.171 765.412 121.624C768.102 124.077 772.504 125.304 778.617 125.304C781.062 125.304 783.14 125.181 784.852 124.936C786.686 124.568 788.153 124.139 789.253 123.648V136.16C788.031 136.651 786.258 137.019 783.935 137.264C781.734 137.632 779.228 137.816 776.416 137.816ZM727.45 54.832V42.32H789.253V54.832H727.45Z" fill="black"/>
<path d="M808.134 136.16V3.68H822.806V136.16H808.134Z" fill="black"/>
<path d="M890.52 138C881.595 138 873.709 135.915 866.863 131.744C860.016 127.451 854.636 121.624 850.724 114.264C846.812 106.904 844.856 98.44 844.856 88.872C844.856 79.304 846.751 70.9013 850.541 63.664C854.453 56.304 859.894 50.6 866.863 46.552C873.831 42.504 881.84 40.48 890.887 40.48C899.567 40.48 907.087 42.3813 913.444 46.184C919.924 49.9867 924.876 55.3227 928.299 62.192C931.844 69.0613 933.617 77.1573 933.617 86.48C933.617 87.7067 933.556 88.872 933.434 89.976C933.434 91.08 933.312 92.3067 933.067 93.656H855.859V81.328H924.081L919.313 88.136C919.313 76.8507 916.806 68.2027 911.794 62.192C906.903 56.0587 899.934 52.992 890.887 52.992C881.595 52.992 874.076 56.2427 868.33 62.744C862.706 69.1227 859.894 77.7707 859.894 88.688C859.894 99.8507 862.706 108.805 868.33 115.552C874.076 122.176 881.717 125.488 891.254 125.488C897.244 125.488 902.502 124.2 907.025 121.624C911.549 118.925 914.85 115.123 916.929 110.216H930.866C927.81 118.803 922.675 125.611 915.461 130.64C908.37 135.547 900.056 138 890.52 138Z" fill="black"/>
</g>
</svg>
