<svg width="197" height="47" viewBox="0 0 197 47" fill="none" xmlns="http://www.w3.org/2000/svg">
<path d="M0 11.2859L41.4146 4V14.5977L0 21.8836V11.2859Z" fill="#FF391F"/>
<path d="M0 21.6396L41.4146 14.3537V24.9514L0 32.2373V21.6396Z" fill="#FF6200"/>
<path d="M0 31.9932L41.4146 24.7073V35.305L0 42.5909V31.9932Z" fill="#FF9D00"/>
<g clip-path="url(#clip0_2_9)">
<path d="M66.088 46.656C62.4613 46.656 59.816 45.8453 58.152 44.224C56.5307 42.56 55.72 40.1707 55.72 37.056V5.824L60.84 3.904V36.992C60.84 38.8267 61.3093 40.1707 62.248 41.024C63.1867 41.8773 64.7227 42.304 66.856 42.304C67.7093 42.304 68.4347 42.2613 69.032 42.176C69.672 42.048 70.184 41.8987 70.568 41.728V46.08C70.1413 46.2507 69.5227 46.3787 68.712 46.464C67.944 46.592 67.0693 46.656 66.088 46.656ZM49 17.792V13.44H70.568V17.792H49ZM84.9085 46.72C82.7752 46.72 80.8765 46.2933 79.2125 45.44C77.5485 44.544 76.2472 43.3067 75.3085 41.728C74.3698 40.1067 73.9005 38.2507 73.9005 36.16V13.44H79.0205V34.816C79.0205 37.2907 79.6178 39.1467 80.8125 40.384C82.0498 41.6213 83.7992 42.24 86.0605 42.24C88.1085 42.24 89.9218 41.7707 91.5005 40.832C93.0792 39.8933 94.3165 38.592 95.2125 36.928C96.1512 35.2213 96.6205 33.28 96.6205 31.104L97.4525 38.848C96.3858 41.28 94.7218 43.2 92.4605 44.608C90.1992 46.016 87.6818 46.72 84.9085 46.72ZM96.9405 46.08V38.4H96.6205V13.44H101.74V46.08H96.9405ZM109.412 46.08V13.44H114.212V21.76H114.532V46.08H109.412ZM114.532 29.056L113.7 21.312C114.468 18.5387 115.833 16.4267 117.796 14.976C119.759 13.5253 122.02 12.8 124.58 12.8C125.647 12.8 126.372 12.8853 126.756 13.056V17.984C126.543 17.8987 126.244 17.856 125.86 17.856C125.476 17.8133 125.007 17.792 124.452 17.792C121.209 17.792 118.735 18.7733 117.028 20.736C115.364 22.656 114.532 25.4293 114.532 29.056ZM146.98 46.656C143.908 46.656 141.327 45.9093 139.236 44.416C137.145 42.9227 135.716 40.8107 134.948 38.08L135.652 37.952V46.08H130.852V0H135.972V21.056L135.268 20.864C136.079 18.3467 137.551 16.384 139.684 14.976C141.86 13.5253 144.441 12.8 147.428 12.8C150.329 12.8 152.847 13.504 154.98 14.912C157.156 16.32 158.841 18.2827 160.036 20.8C161.231 23.3173 161.828 26.2613 161.828 29.632C161.828 33.0453 161.209 36.032 159.972 38.592C158.735 41.152 157.007 43.136 154.788 44.544C152.569 45.952 149.967 46.656 146.98 46.656ZM146.212 42.176C149.455 42.176 151.993 41.0667 153.828 38.848C155.663 36.5867 156.58 33.5147 156.58 29.632C156.58 25.792 155.663 22.784 153.828 20.608C151.993 18.3893 149.455 17.28 146.212 17.28C142.969 17.28 140.409 18.4107 138.532 20.672C136.655 22.8907 135.716 25.9413 135.716 29.824C135.716 33.6213 136.655 36.6293 138.532 38.848C140.409 41.0667 142.969 42.176 146.212 42.176ZM180.673 46.72C177.473 46.72 174.657 45.9733 172.225 44.48C169.793 42.9867 167.894 40.96 166.529 38.4C165.206 35.7973 164.545 32.8747 164.545 29.632C164.545 26.3467 165.227 23.4453 166.593 20.928C167.958 18.4107 169.835 16.4267 172.225 14.976C174.657 13.5253 177.473 12.8 180.673 12.8C183.915 12.8 186.731 13.5253 189.121 14.976C191.553 16.4267 193.43 18.4107 194.753 20.928C196.118 23.4453 196.801 26.3467 196.801 29.632C196.801 32.8747 196.118 35.7973 194.753 38.4C193.43 40.96 191.553 42.9867 189.121 44.48C186.731 45.9733 183.915 46.72 180.673 46.72ZM180.673 42.368C182.891 42.368 184.811 41.8347 186.433 40.768C188.054 39.6587 189.313 38.144 190.209 36.224C191.105 34.304 191.553 32.0853 191.553 29.568C191.553 25.8133 190.55 22.8053 188.545 20.544C186.582 18.2827 183.958 17.152 180.673 17.152C177.43 17.152 174.806 18.2827 172.801 20.544C170.795 22.8053 169.793 25.8133 169.793 29.568C169.793 32.0853 170.241 34.304 171.137 36.224C172.033 38.144 173.291 39.6587 174.913 40.768C176.577 41.8347 178.497 42.368 180.673 42.368Z" fill="black"/>
</g>
<defs>
<clipPath id="clip0_2_9">
<rect width="148" height="47" fill="white" transform="translate(49)"/>
</clipPath>
</defs>
</svg>
