<svg width="457" height="139" viewBox="0 0 457 139" fill="none" xmlns="http://www.w3.org/2000/svg">
<path d="M0 136V34H29.4V58H30V136H0ZM68.6 136V71.2C68.6 66 67.2 62.2 64.4 59.8C61.7333 57.2667 57.9333 56 53 56C48.7333 56 44.8 57 41.2 59C37.7333 60.8667 35 63.6 33 67.2C31 70.6667 30 74.8 30 79.6L27.4 56.6C30.7333 49.1333 35.5333 43.2 41.8 38.8C48.2 34.2667 55.8667 32 64.8 32C75.4667 32 83.7333 35 89.6 41C95.6 47 98.6 54.5333 98.6 63.6V136H68.6ZM137.2 136V71.2C137.2 66 135.8 62.2 133 59.8C130.333 57.2667 126.533 56 121.6 56C117.333 56 113.4 57 109.8 59C106.333 60.8667 103.6 63.6 101.6 67.2C99.6 70.6667 98.6 74.8 98.6 79.6L94 56.6C97.3333 49.1333 102.267 43.2 108.8 38.8C115.467 34.2667 123.467 32 132.8 32C143.867 32 152.333 35.1333 158.2 41.4C164.2 47.5333 167.2 55.6 167.2 65.6V136H137.2Z" fill="black"/>
<path d="M245.7 136C244.9 133.067 244.3 129.933 243.9 126.6C243.633 123.267 243.5 119.4 243.5 115H242.7V66.8C242.7 62.6667 241.3 59.4667 238.5 57.2C235.833 54.8 231.833 53.6 226.5 53.6C221.433 53.6 217.367 54.4667 214.3 56.2C211.367 57.9333 209.433 60.4667 208.5 63.8H179.9C181.233 54.6 185.967 47 194.1 41C202.233 35 213.367 32 227.5 32C242.167 32 253.367 35.2667 261.1 41.8C268.833 48.3333 272.7 57.7333 272.7 70V115C272.7 118.333 272.9 121.733 273.3 125.2C273.833 128.533 274.633 132.133 275.7 136H245.7ZM210.1 138C199.967 138 191.9 135.467 185.9 130.4C179.9 125.2 176.9 118.333 176.9 109.8C176.9 100.333 180.433 92.7333 187.5 87C194.7 81.1333 204.7 77.3333 217.5 75.6L247.3 71.4V88.8L222.5 92.6C217.167 93.4 213.233 94.8667 210.7 97C208.167 99.1333 206.9 102.067 206.9 105.8C206.9 109.133 208.1 111.667 210.5 113.4C212.9 115.133 216.1 116 220.1 116C226.367 116 231.7 114.333 236.1 111C240.5 107.533 242.7 103.533 242.7 99L245.5 115C242.567 122.6 238.1 128.333 232.1 132.2C226.1 136.067 218.767 138 210.1 138Z" fill="black"/>
<path d="M331.127 138.2C318.06 138.2 308.327 135.067 301.927 128.8C295.66 122.4 292.527 112.733 292.527 99.8V11.2L322.527 0V100.8C322.527 105.333 323.793 108.733 326.327 111C328.86 113.267 332.793 114.4 338.127 114.4C340.127 114.4 341.993 114.2 343.727 113.8C345.46 113.4 347.193 112.933 348.927 112.4V135.2C347.193 136.133 344.727 136.867 341.527 137.4C338.46 137.933 334.993 138.2 331.127 138.2ZM273.527 56.8V34H348.927V56.8H273.527Z" fill="black"/>
<path d="M405.391 138C394.057 138 384.191 135.8 375.791 131.4C367.391 126.867 360.857 120.6 356.191 112.6C351.657 104.6 349.391 95.4 349.391 85C349.391 74.4667 351.657 65.2667 356.191 57.4C360.857 49.4 367.324 43.2 375.591 38.8C383.857 34.2667 393.457 32 404.391 32C414.924 32 424.057 34.1333 431.791 38.4C439.524 42.6667 445.524 48.6 449.791 56.2C454.057 63.8 456.191 72.7333 456.191 83C456.191 85.1333 456.124 87.1333 455.991 89C455.857 90.7333 455.657 92.4 455.391 94H366.991V74.2H431.191L425.991 77.8C425.991 69.5333 423.991 63.4667 419.991 59.6C416.124 55.6 410.791 53.6 403.991 53.6C396.124 53.6 389.991 56.2667 385.591 61.6C381.324 66.9333 379.191 74.9333 379.191 85.6C379.191 96 381.324 103.733 385.591 108.8C389.991 113.867 396.524 116.4 405.191 116.4C409.991 116.4 414.124 115.6 417.591 114C421.057 112.4 423.657 109.8 425.391 106.2H453.591C450.257 116.067 444.524 123.867 436.391 129.6C428.391 135.2 418.057 138 405.391 138Z" fill="black"/>
</svg>
